<svg width="86" height="88" viewBox="0 0 86 88" fill="none" xmlns="http://www.w3.org/2000/svg">
<path d="M49.4253 32.6845C43.3689 32.6845 38.4265 37.7723 38.4265 44.0068C38.4265 50.2412 43.3689 55.329 49.4253 55.329C55.4816 55.329 60.424 50.2412 60.424 44.0068C60.424 37.7723 55.4816 32.6845 49.4253 32.6845ZM82.4133 44.0068C82.4133 39.3182 82.4546 34.6721 82.1988 29.992C81.943 24.5559 80.7384 19.7314 76.8768 15.7563C73.007 11.7727 68.3286 10.5411 63.0479 10.2778C58.4933 10.0145 53.9799 10.057 49.4335 10.057C44.8789 10.057 40.3655 10.0145 35.8191 10.2778C30.5384 10.5411 25.8517 11.7812 21.9902 15.7563C18.1204 19.7399 16.924 24.5559 16.6682 29.992C16.4124 34.6806 16.4537 39.3267 16.4537 44.0068C16.4537 48.6869 16.4124 53.3415 16.6682 58.0216C16.924 63.4576 18.1287 68.2821 21.9902 72.2572C25.86 76.2408 30.5384 77.4724 35.8191 77.7357C40.3738 77.999 44.8871 77.9566 49.4335 77.9566C53.9881 77.9566 58.5015 77.999 63.0479 77.7357C68.3286 77.4724 73.0153 76.2323 76.8768 72.2572C80.7466 68.2736 81.943 63.4576 82.1988 58.0216C82.4628 53.3415 82.4133 48.6954 82.4133 44.0068ZM49.4253 61.4276C40.0602 61.4276 32.5022 53.6473 32.5022 44.0068C32.5022 34.3663 40.0602 26.5859 49.4253 26.5859C58.7903 26.5859 66.3484 34.3663 66.3484 44.0068C66.3484 53.6473 58.7903 61.4276 49.4253 61.4276ZM67.0415 29.941C64.8549 29.941 63.0892 28.1233 63.0892 25.8725C63.0892 23.6216 64.8549 21.8039 67.0415 21.8039C69.228 21.8039 70.9938 23.6216 70.9938 25.8725C70.9944 26.4069 70.8926 26.9363 70.6942 27.4302C70.4958 27.9241 70.2047 28.3729 69.8376 28.7509C69.4705 29.1288 69.0345 29.4284 68.5547 29.6327C68.0749 29.8369 67.5607 29.9417 67.0415 29.941Z" fill="#FBF7E4"/>
</svg>
