<svg width="90" height="68" viewBox="0 0 90 68" fill="none" xmlns="http://www.w3.org/2000/svg">
<g clip-path="url(#clip0_401_904)">
<path d="M20.8374 67.4672V33.0812L10.1177 23.3251L0.505127 17.9111V61.399C0.505127 64.7565 3.23965 67.4672 6.60495 67.4672H20.8374Z" fill="#FBF7E4" fill-opacity="0.8"/>
<path d="M69.6345 67.4671H83.867C87.2424 67.4671 89.9668 64.7464 89.9668 61.3988V17.9114L79.079 24.1124L69.6345 33.0811V67.4671Z" fill="#FBF7E4" fill-opacity="0.8"/>
<path d="M20.8374 33.0812L19.3787 19.6456L20.8374 6.78638L45.236 24.9907L69.6346 6.78638L71.2666 18.9513L69.6346 33.0812L45.236 51.2855L20.8374 33.0812Z" fill="#FBF7E4" fill-opacity="0.8"/>
<path d="M69.6345 6.78632V33.0811L89.9668 17.9111V9.82026C89.9668 2.31624 81.3561 -1.96158 75.3279 2.53874L69.6345 6.78632Z" fill="#FBF7E4"/>
<path d="M0.505035 17.911L9.85624 24.8883L20.8373 33.0811V6.78624L15.1439 2.53865C9.10525 -1.96202 0.505035 2.31616 0.505035 9.81983V17.9107V17.911Z" fill="#FBF7E4"/>
</g>
<defs>
<clipPath id="clip0_401_904">
<rect width="89.4618" height="67.0963" fill="white" transform="translate(0.505035 0.701172)"/>
</clipPath>
</defs>
</svg>
