<svg width="23" height="23" viewBox="0 0 23 23" fill="none" xmlns="http://www.w3.org/2000/svg">
<path d="M11.8571 -4.8707e-07C9.6533 -5.83403e-07 7.49894 0.653517 5.66651 1.87791C3.83407 3.1023 2.40587 4.84258 1.56249 6.87867C0.719112 8.91476 0.498447 11.1552 0.928396 13.3167C1.35835 15.4782 2.4196 17.4637 3.97796 19.022C5.53631 20.5804 7.52178 21.6417 9.68328 22.0716C11.8448 22.5016 14.0852 22.2809 16.1213 21.4375C18.1574 20.5941 19.8977 19.1659 21.1221 17.3335C22.3465 15.5011 23 13.3467 23 11.1429C23 8.18759 21.826 5.35336 19.7363 3.26367C17.6466 1.17398 14.8124 -3.57891e-07 11.8571 -4.8707e-07ZM12.6531 4.77551L12.6531 14.4459L17.1158 10.0047L18.2245 11.1429L11.8571 17.5102L5.4898 11.1429L6.62557 10.0047L11.0612 14.4459L11.0612 4.77551L12.6531 4.77551Z" fill="#FBF7E4"/>
</svg>
