<svg width="69" height="70" viewBox="0 0 69 70" fill="none" xmlns="http://www.w3.org/2000/svg">
<path d="M0.89998 69.1763L5.44969 52.2009C2.45179 46.9827 0.876747 41.048 0.88652 35.0068C0.88652 16.1351 15.9524 0.837402 34.5382 0.837402C53.1241 0.837402 68.1899 16.1351 68.1899 35.0068C68.1899 53.8786 53.1241 69.1763 34.5382 69.1763C28.5912 69.186 22.7489 67.588 17.6114 64.5463L0.89998 69.1763ZM22.3933 18.9745C21.9588 19.0019 21.5341 19.1182 21.1449 19.3162C20.7798 19.5261 20.4466 19.7885 20.1555 20.0953C19.7517 20.4814 19.5228 20.8163 19.2772 21.1409C18.0335 22.7844 17.3645 24.8019 17.3759 26.8745C17.3826 28.5488 17.8133 30.1787 18.4864 31.7027C19.8627 34.7847 22.1275 38.0479 25.1191 41.0719C25.8393 41.7997 26.5426 42.5309 27.2997 43.2109C31.0128 46.5303 35.4376 48.9242 40.222 50.202L42.1368 50.4993C42.7593 50.5334 43.3819 50.4856 44.0078 50.4548C44.9879 50.4035 45.9449 50.134 46.811 49.6655C47.2517 49.435 47.6818 49.1842 48.0999 48.9138C48.0999 48.9138 48.2446 48.8181 48.5205 48.6063C48.9748 48.2646 49.2541 48.022 49.631 47.6222C49.9103 47.3283 50.1526 46.9832 50.3377 46.5903C50.6002 46.0333 50.8627 44.9706 50.9704 44.0857C51.0511 43.4091 51.0276 43.0401 51.0175 42.8111C51.004 42.4455 50.7045 42.0662 50.3781 41.9056L48.4196 41.0138C48.4196 41.0138 45.4919 39.7188 43.705 38.8919C43.5166 38.8085 43.3147 38.761 43.1093 38.7518C42.8791 38.7278 42.6464 38.7541 42.427 38.8289C42.2076 38.9038 42.0065 39.0255 41.8373 39.1858V39.1789C41.8205 39.1789 41.595 39.3737 39.162 42.3669C39.0223 42.5575 38.83 42.7015 38.6094 42.7806C38.3889 42.8597 38.1501 42.8703 37.9236 42.8111C37.7043 42.7516 37.4895 42.6762 37.2808 42.5856C36.8636 42.4079 36.7189 42.3396 36.4328 42.2132L36.416 42.2063C34.4908 41.3529 32.7083 40.2001 31.1327 38.7894C30.7087 38.4135 30.3149 38.0035 29.9111 37.6071C28.5872 36.3198 27.4334 34.8634 26.4786 33.2744L26.2801 32.9498C26.1375 32.7317 26.0222 32.4964 25.9369 32.2494C25.809 31.7471 26.1421 31.3439 26.1421 31.3439C26.1421 31.3439 26.9599 30.435 27.3401 29.9429C27.6568 29.534 27.9522 29.1086 28.2252 28.6684C28.6223 28.0192 28.7468 27.3529 28.5381 26.8369C27.5959 24.4997 26.62 22.1728 25.6172 19.8629C25.4186 19.4051 24.8297 19.077 24.2947 19.0121C24.1129 18.9916 23.9312 18.9711 23.7495 18.9575C23.2976 18.9347 22.8447 18.9392 22.3933 18.9711V18.9745Z" fill="#FBF7E4"/>
</svg>
